<svg id="Layer_1" data-name="Layer 1" xmlns="http://www.w3.org/2000/svg" viewBox="0 0 32 32"><defs><style>.cls-1{fill:#ff3b40;}.cls-2{fill:#fff;}</style></defs><title>error-icon</title><circle class="cls-1" cx="16" cy="16" r="16"/><path class="cls-2" d="M16.27,21.32h-.64l-1-7.47A60.35,60.35,0,0,1,14,6.39a2.78,2.78,0,0,1,.52-1.64A1.68,1.68,0,0,1,16,4.06c1.27,0,1.9.83,1.9,2.5A58.53,58.53,0,0,1,17.28,14Zm-.34,2.77a1.81,1.81,0,0,1,1.29.56,1.75,1.75,0,0,1,.57,1.27,1.84,1.84,0,0,1-.55,1.34,1.79,1.79,0,0,1-1.31.56,1.81,1.81,0,0,1-1.31-.57,1.89,1.89,0,0,1-.55-1.33,1.75,1.75,0,0,1,.57-1.27A1.81,1.81,0,0,1,15.93,24.09Z"/></svg>